# xmcd
#
# Track frame offsets:
# 150
# 40893
# 93333
#
# Disc length: 2105 seconds
#
# Revision: 0
# Processed by: cddbd v1.4PL0 Copyright (c) Steve Scherf et al.
# Submitted via: Audion 3.0.2 (http://www.panic.com/audion/)
#
DISCID=1b083703
DTITLE=Rob Walmart - Made in Canada - EPX
DYEAR=1900
DGENRE=
TTITLE0=Phone Jam
TTITLE1=Young Canada's Rise To Power
TTITLE2=Trainsong
EXTD=
EXTT0=
EXTT1=
EXTT2=
PLAYORDER=
